<?xml version="1.0"?>
<svg width="114" height="137" xmlns="http://www.w3.org/2000/svg">
 <!-- Created with Method Draw - http://github.com/duopixel/Method-Draw/ -->

 <g>
  <title>background</title>
  <rect fill="none" id="canvas_background" height="139" width="116" y="-1" x="-1"/>
  <g display="none" overflow="visible" y="0" x="0" height="100%" width="100%" id="canvasGrid">
   <rect x="1" y="1" fill="url(#gridpattern)" stroke-width="0" height="400" width="580"/>
  </g>
 </g>
 <g>
  <title>Layer 1</title>
  <g stroke="null" id="svg_22">
   <path stroke="null" id="svg_4" fill="#00bf00" d="m73.572044,20.669016c0,3.481003 -2.832001,6.311996 -6.311981,6.311996s-6.311001,-2.830994 -6.311001,-6.311996c0,-8.699006 -7.079018,-15.778001 -15.779026,-15.778001s-15.779997,7.078003 -15.779997,15.778001l9.468016,0c0,-3.479996 2.832001,-6.311006 6.311981,-6.311006s6.312016,2.83101 6.312016,6.311006c0,8.701004 7.077995,15.779997 15.778011,15.779997s15.780006,-7.078001 15.780006,-15.779997l-9.468025,0zm0,0"/>
   <path stroke="null" id="svg_5" fill="#0fab0a" d="m79.357056,20.669016c0,8.078003 -6.101021,14.753004 -13.937012,15.669004c0.603996,0.069992 1.218018,0.110992 1.840019,0.110992c8.700996,0 15.780006,-7.078001 15.780006,-15.779997l-3.683014,0zm0,0"/>
   <path stroke="null" id="svg_6" fill="#0fab0a" d="m64.835052,26.496012c-2.279003,-0.953003 -3.88599,-3.205002 -3.88599,-5.826996c0,-6.119996 -3.50602,-11.434999 -8.613014,-14.050004c-2.171989,2.305007 -3.817013,5.111007 -4.739986,8.225006c2.278992,0.951996 3.88599,3.203996 3.88599,5.824998c0,6.121994 3.505005,11.434996 8.612999,14.052c2.17099,-2.306 3.816017,-5.111006 4.740002,-8.225004zm0,0"/>
   <path stroke="null" id="svg_7" fill="#ff933b" d="m40.436058,95.621017l-22.462006,6.239014c-9.105988,2.528999 -15.407989,10.819984 -15.407989,20.270988l0,12.147972l107.297973,0l0,-12.147972c0,-9.451004 -6.301994,-17.741989 -15.406982,-20.270988l-22.462006,-6.239014l-31.55899,0zm0,0"/>
   <path stroke="null" id="svg_8" fill="#f27d27" d="m94.457054,101.860031l-6.722984,-1.866997c7.601982,3.29599 12.66198,10.827972 12.66198,19.295975l0,14.989983l9.467987,0l0,-12.147972c0,-9.451004 -6.301994,-17.741989 -15.406982,-20.270988zm0,0"/>
   <path stroke="null" id="svg_9" fill="#f27d27" d="m56.215046,113.504036c9.665997,0 17.561008,-7.711021 17.868023,-17.304001l-2.08802,-0.579018l-31.55899,0l-2.08902,0.579018c0.308014,9.592979 8.202026,17.304001 17.868008,17.304001zm0,0"/>
   <path stroke="null" id="svg_10" fill="#815d4c" d="m65.68206,86.679024l0,8.941994c0,5.228035 -4.23801,9.467003 -9.467014,9.467003c-5.229004,0 -9.467983,-4.238968 -9.467983,-9.467003l0,-8.941994l18.934998,0zm0,0"/>
   <path stroke="#000000" stroke-opacity="0" id="svg_11" fill="#00bf00" d="m67.260063,4.724023c-8.700016,0 -15.778011,7.077988 -15.778011,15.778993c0,3.481003 -2.832005,6.311996 -6.312016,6.311996s-6.311981,-2.830994 -6.311981,-6.311996l-9.468016,0c-3,1.701004 7.079008,15.779997 15.779997,15.779997s15.779026,-7.078001 15.779026,-15.779997c0,-3.479996 2.830986,-6.311006 6.311001,-6.311006s6.311981,2.83101 6.311981,6.311006l9.468025,0c0,-8.701005 -7.07901,-15.778993 -15.780006,-15.778993zm0,0"/>
   <path stroke="null" id="svg_12" fill="#000000" d="m80.936066,44.601021l6.836998,0l0,8.679001l-6.836998,0l0,-8.679001zm0,0"/>
   <path stroke="null" id="svg_13" fill="#000000" d="m24.657038,44.601021l6.838013,0l0,8.679001l-6.838013,0l0,-8.679001zm0,0"/>
   <path stroke="null" id="svg_14" fill="#815d4c" d="m27.550043,67.481026l5.260008,0l0,-14.202011l-5.260008,0c-2.905001,0 -5.259003,2.354996 -5.259003,5.261002l0,3.680996c0,2.905003 2.354002,5.260014 5.259003,5.260014zm0,0"/>
   <path stroke="null" id="svg_15" fill="#815d4c" d="m84.880058,67.481026l-5.258995,0l0,-14.202011l5.258995,0c2.904999,0 5.259979,2.354996 5.259979,5.261002l0,3.680996c0,2.905003 -2.35498,5.260014 -5.259979,5.260014zm0,0"/>
   <path stroke="null" id="svg_16" fill="#b18b73" d="m56.215046,44.601021l-24.719995,0l0,18.934994c0,13.653034 11.066984,24.720997 24.719995,24.720997c13.653996,0 24.72102,-11.067963 24.72102,-24.720997l0,-18.934994l-24.72102,0zm0,0"/>
   <path stroke="null" id="svg_17" fill="#815d4c" d="m73.572044,44.601021l0,18.934994c0,12.402027 -9.130981,22.670002 -21.039005,24.448017c1.201996,0.179016 2.431,0.27298 3.682007,0.27298c13.653996,0 24.72102,-11.067963 24.72102,-24.720997l0,-18.934994l-7.364021,0zm0,0"/>
   <path stroke="null" id="svg_18" fill="#0fab0a" d="m67.260063,4.891015c-0.622002,0 -1.236023,0.039993 -1.840019,0.111008c7.835991,0.914994 13.938011,7.589996 13.938011,15.666993l3.682014,0c0,-8.699998 -7.07901,-15.778001 -15.780006,-15.778001zm0,0"/>
   <path stroke="null" id="svg_19" d="m94.985039,99.961021l-22.460999,-6.240997c-0.173004,-0.047012 -0.350975,-0.072006 -0.528992,-0.072006l-4.339989,0l0,-5.997971c7.286987,-3.470032 12.761986,-10.148033 14.592003,-18.196014l2.632996,0c3.988007,0 7.233002,-3.244019 7.233002,-7.232029l0,-3.681988c0,-2.115997 -0.914001,-4.022003 -2.367004,-5.346008l0,-8.591995c0,-1.089005 -0.882996,-1.972 -1.972992,-1.972l-41.161011,0c-1.088989,0 -1.972015,0.882996 -1.972015,1.972c0,1.089005 0.883026,1.973007 1.972015,1.973007l32.35199,0l0,16.960995c0,12.544025 -10.204987,22.749012 -22.748997,22.749012c-12.542995,0 -22.747982,-10.204987 -22.747982,-22.749012l0,-16.960995l3.944977,0c1.08902,0 1.972015,-0.884003 1.972015,-1.973007c0,-1.089005 -0.882996,-1.972 -1.972015,-1.972l-12.755003,0c-1.088989,0 -1.972994,0.882996 -1.972994,1.972l0,8.591995c-1.451994,1.324005 -2.365997,3.230011 -2.365997,5.346008l0,3.681988c0,3.98801 3.243988,7.232029 7.231997,7.232029l2.634003,0c1.828001,8.047981 7.304014,14.725983 14.591002,18.196014l0,5.997971l-4.338989,0c-0.179016,0 -0.356995,0.024994 -0.529022,0.072006l-22.460966,6.240997c-9.921999,2.75399 -16.852022,11.871002 -16.852022,22.171005l0,0.47699c0,1.089996 0.882996,1.972992 1.972015,1.972992c1.089996,0 1.971985,-0.882996 1.971985,-1.972992l0,-0.47699c0,-8.533989 5.742004,-16.089005 13.96402,-18.370003l18.110992,-5.03199c0.664978,4.220001 2.666992,8.108002 5.785004,11.134964c3.72699,3.619026 8.632999,5.611031 13.816982,5.611031s10.091007,-1.992004 13.816998,-5.611031c3.118011,-3.027969 5.120026,-6.914963 5.784019,-11.134964l18.112984,5.03199c8.221008,2.280998 13.962006,9.836014 13.962006,18.370003l0,0.47699c0,1.089996 0.882988,1.972992 1.972984,1.972992s1.972015,-0.882996 1.972015,-1.972992l0,-0.47699c0,-10.300003 -6.929993,-19.418022 -16.851013,-22.171005zm-6.816986,-37.740009c0,1.813007 -1.474998,3.287998 -3.287994,3.287998l-2.044006,0c0.046997,-0.650993 0.072998,-1.30899 0.072998,-1.972996l0,-8.283993l1.971008,0c1.812996,0 3.287994,1.474991 3.287994,3.287994l0,3.680996zm-2.367004,-10.852993c-0.302002,-0.039001 -0.609009,-0.061005 -0.92099,-0.061005l-1.972008,0l0,-4.733002l2.892998,0l0,4.794006zm-59.171995,-4.794006l2.893003,0l0,4.734009l-1.972013,0c-0.311981,0 -0.618988,0.020996 -0.92099,0.059998l0,-4.794006zm0.92099,18.934998c-1.812988,0 -3.286989,-1.474991 -3.286989,-3.287998l0,-3.680996c0,-1.813004 1.474001,-3.287003 3.286989,-3.287003l1.972013,0l0,8.283001c0,0.664005 0.026003,1.322002 0.073,1.972996l-2.045013,0zm28.665003,24.720016c2.601013,0 5.117004,-0.375015 7.494995,-1.071999l0,6.463989c0,4.133018 -3.361992,7.495033 -7.494995,7.495033c-4.131981,0 -7.494991,-3.362015 -7.494991,-7.495033l0,-6.463989c2.378994,0.696983 4.893978,1.071999 7.494991,1.071999zm15.776005,7.437988c-0.997986,7.887993 -7.654999,13.864006 -15.776005,13.864006c-8.119991,0 -14.778011,-5.976013 -15.77499,-13.864006l0.265991,-0.073975l4.243011,0c0.937988,5.370972 5.630978,9.467987 11.265987,9.467987c5.635986,0 10.328007,-4.097015 11.265995,-9.467987l4.244019,0l0.265991,0.073975zm0,0"/>
   <path stroke="null" id="svg_20" d="m109.864037,129.875015c-1.089996,0 -1.972984,0.883011 -1.972984,1.972015l0,0.459976l-17.092987,0l0,-7.757988c0,-1.088974 -0.882996,-1.971985 -1.973022,-1.971985c-1.087982,0 -1.971992,0.883011 -1.971992,1.971985l0,7.757988l-61.275999,0l0,-7.757988c0,-1.088974 -0.882996,-1.971985 -1.971985,-1.971985c-1.090029,0 -1.973024,0.883011 -1.973024,1.971985l0,7.757988l-17.093994,0l0,-0.459976c0,-1.089005 -0.881988,-1.972015 -1.971985,-1.972015c-1.08902,0 -1.972015,0.883011 -1.972015,1.972015l0,2.431961c0,1.090027 0.882996,1.973022 1.972015,1.973022l107.297973,0c1.08902,0 1.972015,-0.882996 1.972015,-1.973022l0,-2.431961c0,-1.089005 -0.882996,-1.972015 -1.972015,-1.972015zm0,0"/>
   <path stroke="null" id="svg_21" d="m45.170036,38.421013c4.170013,0 8.007015,-1.449005 11.041019,-3.865997c3.133995,2.503998 6.997002,3.865997 11.049984,3.865997c9.788033,0 17.751007,-7.962996 17.751007,-17.751997c0,-9.787995 -7.962975,-17.751008 -17.751984,-17.751008c-4.170017,0 -8.007023,1.450012 -11.041019,3.868011c-3.134003,-2.505005 -6.993984,-3.868011 -11.049007,-3.868011c-9.787994,0 -17.750975,7.963012 -17.750975,17.751008c0,9.789001 7.96298,17.751997 17.750975,17.751997zm0,-31.557997c3,0 5.861027,0.960998 8.232021,2.731994c-1.161011,1.451004 -2.10202,3.087006 -2.766998,4.85701c-1.459011,-1.285004 -3.372005,-2.06601 -5.465023,-2.06601c-4.567993,0 -8.283997,3.716004 -8.283997,8.283006c0,4.569 3.716003,8.285004 8.283997,8.285004c4.568024,0 8.284023,-3.716003 8.284023,-8.285004c0,-7.612 6.194,-13.806 13.80698,-13.806c7.612007,0 13.807007,6.194 13.807007,13.806c0,7.613007 -6.195,13.807997 -13.807007,13.807997c-2.997986,0 -5.860996,-0.962006 -8.231998,-2.733c1.161011,-1.451004 2.10199,-3.085999 2.766998,-4.856995c1.459015,1.285995 3.372013,2.067001 5.465,2.067001c4.568024,0 8.283997,-3.716003 8.283997,-8.285004c0,-4.567001 -3.715973,-8.283006 -8.283997,-8.283006c-4.567989,0 -8.283993,3.716004 -8.283993,8.283006c0,7.613007 -6.194008,13.807997 -13.807011,13.807997s-13.806974,-6.19499 -13.806974,-13.807997c0,-7.612 6.193998,-13.806 13.806974,-13.806zm4.33902,13.806c0,2.393997 -1.947021,4.339996 -4.33902,4.339996s-4.338989,-1.945999 -4.338989,-4.339996c0,-2.391998 1.946014,-4.337997 4.338989,-4.337997s4.33902,1.945999 4.33902,4.337997zm13.412991,0c0,-2.391998 1.946018,-4.337997 4.338017,-4.337997s4.339996,1.945999 4.339996,4.337997c0,2.393997 -1.947021,4.339996 -4.339996,4.339996s-4.338017,-1.945999 -4.338017,-4.339996zm0,0"/>
  </g>
 </g>
</svg>