<?xml version="1.0" encoding="iso-8859-1"?>
<!-- Generator: Adobe Illustrator 19.0.0, SVG Export Plug-In . SVG Version: 6.00 Build 0)  -->
<svg version="1.1" id="Layer_1" xmlns="http://www.w3.org/2000/svg" xmlns:xlink="http://www.w3.org/1999/xlink" x="0px" y="0px"
	 viewBox="0 0 511.999 511.999" style="enable-background:new 0 0 511.999 511.999;" xml:space="preserve">
<g>
	<g>
		<path d="M264.746,114.697c-25.386-25.385-66.689-25.385-92.076,0c-12.296,12.297-19.069,28.647-19.069,46.038
			s6.773,33.741,19.069,46.038c12.694,12.693,29.366,19.038,46.038,19.038s33.345-6.346,46.038-19.038
			c12.296-12.297,19.069-28.647,19.069-46.038S277.042,126.994,264.746,114.697z M252.963,194.989
			c-18.886,18.887-49.622,18.887-68.508,0c-9.15-9.15-14.189-21.315-14.189-34.254c0-12.939,5.039-25.104,14.189-34.254
			c9.443-9.443,21.849-14.166,34.254-14.166c12.405,0,24.811,4.722,34.254,14.166c9.15,9.149,14.189,21.315,14.189,34.254
			C267.152,173.674,262.113,185.839,252.963,194.989z"/>
	</g>
</g>
<g>
	<g>
		<path d="M381.95,280.216l-36.588-36.588c-5.845-5.845-13.616-9.063-21.88-9.063c-5.408,0-10.601,1.386-15.184,3.976
			l-14.868-14.869c32.349-38.353,30.491-95.922-5.624-132.036c-8.521-8.521-18.377-15.309-29.296-20.174
			c-4.201-1.872-9.129,0.016-11.002,4.219c-1.873,4.203,0.017,9.129,4.219,11.002c9.049,4.032,17.222,9.663,24.295,16.736
			c31.603,31.604,31.603,83.027,0,114.63c-31.603,31.603-83.026,31.603-114.63,0c-15.31-15.31-23.741-35.664-23.741-57.315
			s8.431-42.006,23.741-57.315c17.755-17.755,42.257-26.187,67.209-23.139c4.575,0.558,8.723-2.692,9.281-7.26
			c0.56-4.567-2.691-8.722-7.258-9.281c-30.086-3.678-59.61,6.491-81.016,27.896c-18.456,18.457-28.621,42.996-28.621,69.099
			c0,26.103,10.164,50.642,28.621,69.098c19.051,19.051,44.075,28.576,69.099,28.576c22.415,0,44.816-7.668,62.938-22.952
			l14.876,14.876c-6.631,11.79-4.944,27.033,5.079,37.057l36.589,36.588c5.845,5.845,13.616,9.063,21.88,9.063
			c8.264,0,16.037-3.218,21.88-9.063C394.014,311.912,394.014,292.281,381.95,280.216z M370.167,312.193
			c-2.696,2.697-6.282,4.183-10.096,4.183c-3.814,0-7.4-1.485-10.096-4.183l-36.589-36.588c-5.568-5.567-5.568-14.626,0-20.194
			c2.696-2.697,6.282-4.183,10.097-4.183c3.814,0,7.4,1.485,10.096,4.183l36.588,36.588
			C375.735,297.566,375.735,306.626,370.167,312.193z"/>
	</g>
</g>
<g>
	<g>
		<path d="M471.246,24.766H40.754C18.283,24.766,0,43.049,0,65.52v59.227c0,4.602,3.731,8.332,8.332,8.332
			c4.601,0,8.332-3.731,8.332-8.332V65.52c0-13.284,10.807-24.09,24.09-24.09h430.492c13.284,0,24.09,10.807,24.09,24.09v284.411
			h-52.21c-4.602,0-8.332,3.731-8.332,8.332s3.731,8.332,8.332,8.332h52.21v15.273c0,13.284-10.807,24.09-24.09,24.09h-155.41
			H196.164H40.754c-13.284,0-24.09-10.807-24.09-24.09v-15.273h398.688c4.602,0,8.332-3.731,8.332-8.332s-3.731-8.332-8.332-8.332
			H16.664V152.522c0-4.602-3.731-8.332-8.332-8.332c-4.601,0-8.332,3.73-8.332,8.332V381.87c0,22.472,18.283,40.754,40.754,40.754
			H183.54l-20.494,47.945h-40.034c-4.602,0-8.332,3.731-8.332,8.332s3.731,8.332,8.332,8.332h265.975
			c4.602,0,8.332-3.731,8.332-8.332s-3.731-8.332-8.332-8.332h-40.034l-20.494-47.945h142.786c22.472,0,40.754-18.282,40.754-40.754
			V65.52C512,43.049,493.717,24.766,471.246,24.766z M330.83,470.568H181.17l14.238-33.31h121.185L330.83,470.568z"/>
	</g>
</g>
<g>
	<g>
		<path d="M262.924,379.679c-1.914-2.906-5.583-4.299-8.952-3.457c-3.517,0.879-6.116,4.048-6.291,7.67
			c-0.364,7.534,9.106,11.629,14.33,6.172C264.674,387.282,265.089,382.887,262.924,379.679z"/>
	</g>
</g>
<g>
</g>
<g>
</g>
<g>
</g>
<g>
</g>
<g>
</g>
<g>
</g>
<g>
</g>
<g>
</g>
<g>
</g>
<g>
</g>
<g>
</g>
<g>
</g>
<g>
</g>
<g>
</g>
<g>
</g>
</svg>
